<svg xmlns="http://www.w3.org/2000/svg" version="1.1" xmlns:xlink="http://www.w3.org/1999/xlink" xmlns:svgjs="http://svgjs.dev/svgjs" viewBox="0 0 4.0418291938968105 1.5201826084236956"><g transform="matrix(1,0,0,1,1.7176846560230683,0.22759130421184792)"><rect width="4.0418291938968105" height="4.0418291938968105" x="-1.7176846560230683" y="-1.4884145969484055" fill="none"></rect><g><path d=" M 0.1485 1.0649999999999997 Q 0.132 1.0649999999999997 0.1215 1.0544999999999998 Q 0.111 1.0439999999999998 0.111 1.0274999999999996 L 0.111 0.05249999999999977 Q 0.111 0.03599999999999981 0.1215 0.025499999999999634 Q 0.132 0.01499999999999968 0.1485 0.01499999999999968 L 0.594 0.01499999999999968 Q 0.7185 0.01499999999999968 0.798 0.05099999999999971 Q 0.8775000000000001 0.08699999999999974 0.9157500000000001 0.1529999999999997 Q 0.9540000000000001 0.21899999999999975 0.9540000000000001 0.30749999999999966 Q 0.9540000000000001 0.36299999999999966 0.93375 0.4049999999999997 Q 0.9135 0.44699999999999973 0.88425 0.47399999999999975 Q 0.855 0.5009999999999997 0.8280000000000001 0.5144999999999997 Q 0.8865000000000001 0.5414999999999998 0.93075 0.6037499999999998 Q 0.975 0.6659999999999997 0.975 0.7514999999999997 Q 0.975 0.8459999999999998 0.933 0.9164999999999998 Q 0.891 0.9869999999999998 0.8085 1.0259999999999998 Q 0.726 1.0649999999999997 0.6075 1.0649999999999997 L 0.1485 1.0649999999999997 M 0.34950000000000003 0.8894999999999997 L 0.579 0.8894999999999997 Q 0.6525 0.8894999999999997 0.6900000000000001 0.8482499999999997 Q 0.7275 0.8069999999999997 0.7275 0.7499999999999998 Q 0.7275 0.6914999999999998 0.68925 0.6517499999999997 Q 0.651 0.6119999999999997 0.579 0.6119999999999997 L 0.34950000000000003 0.6119999999999997 L 0.34950000000000003 0.8894999999999997 M 0.34950000000000003 0.43949999999999967 L 0.5655 0.43949999999999967 Q 0.636 0.43949999999999967 0.67125 0.40424999999999967 Q 0.7065 0.36899999999999966 0.7065 0.31349999999999967 Q 0.7065 0.2579999999999997 0.67125 0.22424999999999973 Q 0.636 0.19049999999999967 0.5655 0.19049999999999967 L 0.34950000000000003 0.19049999999999967 L 0.34950000000000003 0.43949999999999967 M 1.590010986328125 1.0799999999999996 Q 1.449010986328125 1.0799999999999996 1.349260986328125 1.0327499999999996 Q 1.249510986328125 0.9854999999999997 1.1947609863281252 0.8947499999999997 Q 1.1400109863281251 0.8039999999999997 1.1355109863281252 0.6749999999999997 Q 1.1340109863281251 0.6104999999999997 1.1340109863281251 0.5369999999999997 Q 1.1340109863281251 0.4634999999999997 1.1355109863281252 0.39749999999999974 Q 1.1400109863281251 0.27149999999999974 1.1947609863281252 0.18299999999999972 Q 1.249510986328125 0.0944999999999997 1.3507609863281251 0.04724999999999979 Q 1.4520109863281252 -2.220446049250313e-16 1.590010986328125 -2.220446049250313e-16 Q 1.701010986328125 -2.220446049250313e-16 1.7850109863281252 0.028499999999999748 Q 1.8690109863281252 0.05699999999999972 1.9260109863281252 0.10274999999999967 Q 1.9830109863281251 0.14849999999999974 2.0130109863281254 0.20249999999999968 Q 2.043010986328125 0.25649999999999973 2.0445109863281252 0.3059999999999997 Q 2.0445109863281252 0.3194999999999997 2.0355109863281253 0.3292499999999997 Q 2.026510986328125 0.33899999999999975 2.0115109863281253 0.33899999999999975 L 1.8255109863281251 0.33899999999999975 Q 1.8105109863281252 0.33899999999999975 1.8022609863281251 0.33299999999999974 Q 1.794010986328125 0.32699999999999974 1.7880109863281253 0.3149999999999997 Q 1.777510986328125 0.2879999999999997 1.754260986328125 0.26024999999999976 Q 1.7310109863281251 0.2324999999999997 1.6920109863281252 0.21299999999999975 Q 1.653010986328125 0.19349999999999967 1.590010986328125 0.19349999999999967 Q 1.495510986328125 0.19349999999999967 1.4407609863281252 0.24299999999999966 Q 1.3860109863281251 0.29249999999999976 1.3815109863281252 0.4049999999999997 Q 1.3770109863281252 0.5339999999999997 1.3815109863281252 0.6674999999999998 Q 1.3860109863281251 0.7844999999999998 1.442260986328125 0.8354999999999997 Q 1.4985109863281252 0.8864999999999997 1.593010986328125 0.8864999999999997 Q 1.654510986328125 0.8864999999999997 1.7032609863281252 0.8647499999999997 Q 1.7520109863281252 0.8429999999999997 1.780510986328125 0.7964999999999998 Q 1.8090109863281252 0.7499999999999998 1.8090109863281252 0.6779999999999997 L 1.8090109863281252 0.6404999999999997 L 1.6455109863281252 0.6404999999999997 Q 1.630510986328125 0.6404999999999997 1.6200109863281251 0.6292499999999996 Q 1.6095109863281252 0.6179999999999997 1.6095109863281252 0.6029999999999998 L 1.6095109863281252 0.5069999999999997 Q 1.6095109863281252 0.4904999999999997 1.6200109863281251 0.47999999999999976 Q 1.630510986328125 0.4694999999999997 1.6455109863281252 0.4694999999999997 L 2.0130109863281254 0.4694999999999997 Q 2.029510986328125 0.4694999999999997 2.040010986328125 0.47999999999999976 Q 2.050510986328125 0.4904999999999997 2.050510986328125 0.5069999999999997 L 2.050510986328125 0.6704999999999997 Q 2.050510986328125 0.7994999999999997 1.994260986328125 0.8909999999999997 Q 1.9380109863281252 0.9824999999999997 1.8337609863281252 1.0312499999999998 Q 1.7295109863281253 1.0799999999999996 1.590010986328125 1.0799999999999996" fill="#ffffff" fill-rule="nonzero"></path></g><g></g><g clip-path="url(&quot;#SvgjsClipPath1002&quot;)"><g clip-path="url(&quot;#SvgjsClipPath1000&quot;)"><path d=" M -0.61973737228288 0.08907397743178767 L -0.61973737228288 0.08907397743178767 C -0.6443713472285696 0.07057678590382557 -0.672507920257019 0.0532664251311787 -0.682552561039809 0.04727437717141633 C -0.9372151589325409 -0.09710588562659495 -1.2601654920301844 -0.02003185815704427 -1.422181061174637 0.22379113994997815 C -1.5841966303190897 0.46761413805700053 -1.530137249701795 0.7952036780693922 -1.2983729875904604 0.9740444616146631 C -1.277102919362874 0.9900666034294479 -1.2550363644373945 1.0050030718684984 -1.23225783039192 1.018796665217528 C -1.2227342372578074 1.0241808242538346 -1.213123802848913 1.0293334065573982 -1.2033107387988675 1.0341096766702524 L -1.2024133789594829 1.0345728301357413 C -0.9445420427151501 1.1601933686737782 -0.6334360916886874 1.069858063439229 -0.48294755093056274 0.8256627627892894 C -0.33245901017243784 0.5814674621393497 -0.3916086261856695 0.26295733190581067 -0.61973737228288 0.08907397743178755 Z M -0.5741457030238184 0.23204366280988603 C -0.5323063588551217 0.2857472769851486 -0.5021904832028858 0.3476258361592745 -0.4857412852986285 0.41368666255630576 C -0.5167351963570747 0.4109466498448898 -0.5475210944537365 0.4062185392389641 -0.5779088249309134 0.3995315347673023 C -0.5712657668078551 0.34395355404723094 -0.5700055434623869 0.28786392114817067 -0.5741457030238184 0.23204366280988592 Z M -0.6586133162923526 0.14809709719002667 C -0.6578027977277472 0.1487339332050739 -0.6569633320715486 0.14928392794534195 -0.656152813506943 0.14992076396038914 C -0.6420468263244047 0.2259394245625263 -0.6390339537629698 0.3036013337917364 -0.6472081622046889 0.3804843484990716 C -0.6913295319152324 0.3657703509359894 -0.7338709712252024 0.3466863407782459 -0.7741990530234211 0.3235164722439396 Z M -1.0088731245683176 0.5508669296157931 L -1.0995643625293585 0.6869182601031514 C -1.147274798598757 0.6582368427681904 -1.1977647769207733 0.6344563151374596 -1.2502629213628016 0.6159399915169811 C -1.2379594596151917 0.552192112021868 -1.2156554244324143 0.49079007035574596 -1.1841767112558585 0.43400752085463123 Z M -1.1459376032614326 0.3746370359972746 C -1.1055427556280024 0.3203244578633735 -1.056523010541746 0.2729963975766231 -1.0008258331054487 0.2345331126868893 C -0.9622880599038989 0.27589166438053275 -0.9196088962650396 0.31318743351494516 -0.873458630096007 0.34583467986218447 L -0.9698234980092862 0.49201749240711246 Z M -0.950139475726009 0.5900323445411964 L -0.7744306297561655 0.7071522771266967 C -0.8150178316486448 0.7583794810380093 -0.8634917643487702 0.802827761596943 -0.9180371511493114 0.8388325967835039 C -0.9547372907754605 0.7969005702004704 -0.9959351408595548 0.7591294027458967 -1.0408886078702366 0.7261994633949264 Z M -0.911089849166978 0.5310960660577366 L -0.8139434097806855 0.3836685285743079 C -0.7648357088488257 0.4120666854675181 -0.7127060782776765 0.43488371505258083 -0.658526475017573 0.4516941938179873 C -0.6723450313826276 0.5212865683583954 -0.6979346723415116 0.5880115082113997 -0.7341941724418197 0.6489975701162507 Z M -0.8337721675219282 0.2854510467990724 C -0.87142573306968 0.2585783126336855 -0.9065839286433723 0.2283707475196669 -0.9388211629131251 0.19519401521192664 C -0.8700339776230489 0.15665980839591784 -0.7959873636493221 0.12837913138764617 -0.7190258964470579 0.11124744959206764 Z M -0.9576367724486102 0.04461124474485527 C -0.9105158878070972 0.044571039587008365 -0.8636405787042833 0.05139706754040341 -0.8184881031607952 0.06487420885999372 C -0.8772765344521045 0.0840759329706611 -0.9338424807121058 0.10951071511982272 -0.9872207000567117 0.14074453592539038 C -1.0098938671720294 0.11306078952250459 -1.0304834331801462 0.08373420372804871 -1.0488201109667343 0.053005901306840006 C -1.018743713313094 0.0473737847625698 -0.9882069779513712 0.044563358467774636 -0.9576078253570173 0.04461124474485527 Z M -1.119219437721043 0.07216887594144358 C -1.0986047064631261 0.11022609536366149 -1.0746381368544082 0.1463696973079324 -1.0476043331198248 0.18017047467513206 C -1.1072649353672792 0.22267536052542847 -1.1598096221984642 0.274370031039337 -1.203281791707275 0.33332953629398565 C -1.2037738922643564 0.33399531940062555 -1.2042080986382524 0.33471899669045196 -1.2047001991953343 0.3353847797970922 L -1.3481909322221075 0.23971464208204563 C -1.2901849619683987 0.16236873825081571 -1.2104655219310922 0.10404284785315043 -1.11919049062945 0.0721688759414437 Z M -1.3323858202122996 0.8450562214760107 C -1.3807043658080003 0.7869683883445693 -1.4148541453993577 0.7184408996985345 -1.4321374978419668 0.6448870831100356 C -1.3974968716620113 0.6495800231045965 -1.3632267833382299 0.6566893979050423 -1.3295779523277709 0.6661631954309315 C -1.3361387378080578 0.7255540795510551 -1.337069185577774 0.7854322703980167 -1.3323568731207067 0.8449983272928232 Z M -1.4437163344791888 0.572403565761026 C -1.4517372298054065 0.47767949695161016 -1.4317461444915547 0.3826866106943988 -1.3862274105753822 0.2992298623973675 L -1.243055095556132 0.3947552646544479 C -1.2784393981261444 0.457171832527917 -1.3037421964062335 0.5247859896308116 -1.3180280627821448 0.5950980855699823 C -1.3592098231977645 0.5840051310815219 -1.4012556071588465 0.5764132622133761 -1.4437163344791901 0.572403565761026 Z M -1.2608575568858607 0.6886261385071417 C -1.218795227448511 0.7044714913494973 -1.178201116200631 0.7239694502953294 -1.139540296019367 0.7468966338839617 L -1.2533023659800735 0.9176844742829855 C -1.2650079627355624 0.8419119385606607 -1.2675446269854957 0.7650053323931445 -1.2608575568858607 0.6886261385071409 Z M -1.080777700085466 0.7860331017177715 C -1.0444646845823087 0.81273560480119 -1.0108165723631968 0.8428841582444161 -0.980302345165972 0.8760585565721727 C -1.0482065947717893 0.9114965009134304 -1.1201255959694212 0.9386410644735637 -1.1945108229545798 0.9569077833915753 Z M -0.958563079379588 1.0203598081635514 C -1.004258607551987 1.0203182090186285 -1.0497196108504259 1.013827956457694 -1.0936012616611896 1.0010810451625767 C -1.0385148325746212 0.9828509958040443 -0.9852209152555467 0.9595954682466302 -0.934392257899387 0.931608025339245 C -0.9149143310651228 0.957889528784903 -0.897226327269425 0.9854514811182757 -0.8814480273756891 1.0141072363794523 C -0.906950119968275 1.0182037035521028 -0.9327341522110503 1.0202943007609764 -0.9585630793795881 1.0203598081635514 Z M -0.8101223936904022 0.9974047645302588 C -0.8287975023904539 0.9615222780480572 -0.8500826157322992 0.927059744537306 -0.873805995195124 0.8942952242757954 C -0.813471799520072 0.8537640559675993 -0.7600152122859966 0.8038354080372717 -0.7154654041811126 0.7464045333268793 L -0.5781404016636598 0.8379641840357122 C -0.6380804754568802 0.912794937257544 -0.7187819099639635 0.9682608096390031 -0.8101223936904023 0.9974047645302588 Z M -0.5381934152652441 0.7796357944757064 L -0.6754026294163245 0.6881629850416529 C -0.6749684230424287 0.6874682548434194 -0.6745052695769398 0.6868314188283723 -0.6740710632030439 0.686136688630139 C -0.6340370982112125 0.6191960155260549 -0.6055420013494852 0.5460011925433212 -0.5897771324840678 0.4696124435140875 C -0.551206552745995 0.4777212362879376 -0.5121054260120321 0.48306112296709336 -0.4727729882649403 0.4855912380734543 C -0.46283776098101304 0.5880640907113721 -0.4857486707265313 0.6910415337179983 -0.5381934152652442 0.7796357944757065 Z" fill="#ffffff" transform="matrix(1,0,0,1,0,0)" fill-rule="nonzero"></path></g></g></g><defs><clipPath id="SvgjsClipPath1002"><path d=" M -1.5160840634618262 -0.025990711650605736 h 1.1160840634618263 v 1.1169814233012112 h -1.1160840634618263 Z"></path></clipPath><clipPath id="SvgjsClipPath1000"><path d=" M -1.5160840634618262 -0.025990711650605736 L -0.3999999999999999 -0.025990711650605736 L -0.3999999999999999 1.0909907116506055 L -1.5160840634618262 1.0909907116506055 Z"></path></clipPath></defs></svg>